<?xml version="1.0" encoding="UTF-8" standalone="no" ?>
<!DOCTYPE svg PUBLIC "-//W3C//DTD SVG 1.1//EN" "http://www.w3.org/Graphics/SVG/1.1/DTD/svg11.dtd">
<svg xmlns="http://www.w3.org/2000/svg" width="800" height="400" class="svgbob">
	<style>.svgbob line, .svgbob path, .svgbob circle, .svgbob rect, .svgbob polygon {
		stroke: black;
		stroke-width: 2;
		stroke-opacity: 1;
		fill-opacity: 1;
		stroke-linecap: round;
		stroke-linejoin: miter;
	}
	.svgbob text {
		white-space: pre;
		fill: black;
		font-family: Iosevka Fixed, monospace;
		font-size: 14px;
	}
	.svgbob rect.backdrop {
		stroke: none;
		fill: white;
	}
	.svgbob .broken {
		stroke-dasharray: 8;
	}
	.svgbob .filled {
		fill: black;
	}
	.svgbob .bg_filled {
		fill: white;
		stroke-width: 1;
	}
	.svgbob .nofill {
		fill: white;
	}
	.svgbob .end_marked_arrow {
		marker-end: url(#arrow);
	}
	.svgbob .start_marked_arrow {
		marker-start: url(#arrow);
	}
	.svgbob .end_marked_diamond {
		marker-end: url(#diamond);
	}
	.svgbob .start_marked_diamond {
		marker-start: url(#diamond);
	}
	.svgbob .end_marked_circle {
		marker-end: url(#circle);
	}
	.svgbob .start_marked_circle {
		marker-start: url(#circle);
	}
	.svgbob .end_marked_open_circle {
		marker-end: url(#open_circle);
	}
	.svgbob .start_marked_open_circle {
		marker-start: url(#open_circle);
	}
	.svgbob .end_marked_big_open_circle {
		marker-end: url(#big_open_circle);
	}
	.svgbob .start_marked_big_open_circle {
		marker-start: url(#big_open_circle);
	}				<!--separator--></style>
	<defs>
		<marker id="arrow" viewBox="-2 -2 8 8" refX="4" refY="2" markerWidth="7" markerHeight="7" orient="auto-start-reverse">
			<polygon points="0,0 0,4 4,2 0,0"></polygon>
		</marker>
		<marker id="diamond" viewBox="-2 -2 8 8" refX="4" refY="2" markerWidth="7" markerHeight="7" orient="auto-start-reverse">
			<polygon points="0,2 2,0 4,2 2,4 0,2"></polygon>
		</marker>
		<marker id="circle" viewBox="0 0 8 8" refX="4" refY="4" markerWidth="7" markerHeight="7" orient="auto-start-reverse">
			<circle cx="4" cy="4" r="2" class="filled"></circle>
		</marker>
		<marker id="open_circle" viewBox="0 0 8 8" refX="4" refY="4" markerWidth="7" markerHeight="7" orient="auto-start-reverse">
			<circle cx="4" cy="4" r="2" class="bg_filled"></circle>
		</marker>
		<marker id="big_open_circle" viewBox="0 0 8 8" refX="4" refY="4" markerWidth="7" markerHeight="7" orient="auto-start-reverse">
			<circle cx="4" cy="4" r="3" class="bg_filled"></circle>
		</marker>
	</defs>
	<rect class="backdrop" x="0" y="0" width="800" height="400"></rect>
	<rect x="364" y="184" width="16" height="16" class="solid nofill" rx="0"></rect>
	<text x="282" y="76">.........</text>
	<text x="290" y="92">.........</text>
	<g>
		<line x1="96" y1="16" x2="328" y2="16" class="solid"></line>
		<line x1="96" y1="16" x2="84" y2="40" class="solid"></line>
		<line x1="152" y1="16" x2="160" y2="24" class="solid"></line>
		<line x1="160" y1="24" x2="272" y2="24" class="solid"></line>
		<line x1="280" y1="16" x2="272" y2="24" class="solid"></line>
		<line x1="328" y1="16" x2="376" y2="112" class="solid"></line>
		<line x1="84" y1="40" x2="84" y2="56" class="solid"></line>
		<line x1="84" y1="56" x2="72" y2="80" class="solid"></line>
		<line x1="64" y1="80" x2="72" y2="80" class="solid"></line>
		<line x1="64" y1="80" x2="16" y2="176" class="solid"></line>
		<line x1="8" y1="176" x2="16" y2="176" class="solid"></line>
		<line x1="8" y1="176" x2="0" y2="192" class="solid"></line>
		<line x1="0" y1="192" x2="8" y2="208" class="solid"></line>
		<line x1="152" y1="80" x2="192" y2="80" class="solid"></line>
		<line x1="200" y1="72" x2="192" y2="80" class="solid"></line>
		<line x1="200" y1="72" x2="224" y2="72" class="solid"></line>
		<line x1="224" y1="72" x2="232" y2="80" class="solid"></line>
		<line x1="232" y1="80" x2="272" y2="80" class="solid"></line>
		<line x1="152" y1="80" x2="128" y2="128" class="solid"></line>
		<line x1="272" y1="80" x2="288" y2="112" class="solid"></line>
		<line x1="288" y1="112" x2="360" y2="112" class="solid"></line>
		<line x1="368" y1="96" x2="360" y2="112" class="solid"></line>
		<line x1="120" y1="128" x2="128" y2="128" class="solid"></line>
		<line x1="304" y1="112" x2="312" y2="128" class="solid"></line>
		<line x1="312" y1="128" x2="368" y2="128" class="solid"></line>
		<line x1="376" y1="112" x2="368" y2="128" class="solid"></line>
		<line x1="120" y1="128" x2="116" y2="136" class="solid"></line>
		<line x1="116" y1="136" x2="116" y2="152" class="solid"></line>
		<line x1="116" y1="152" x2="96" y2="192" class="solid"></line>
		<line x1="96" y1="192" x2="120" y2="240" class="solid"></line>
		<line x1="120" y1="240" x2="128" y2="240" class="solid"></line>
		<line x1="128" y1="240" x2="140" y2="264" class="solid"></line>
		<line x1="140" y1="264" x2="140" y2="280" class="solid"></line>
		<line x1="140" y1="280" x2="152" y2="304" class="solid"></line>
		<line x1="152" y1="304" x2="224" y2="304" class="solid"></line>
		<line x1="224" y1="304" x2="232" y2="312" class="solid"></line>
		<line x1="164" y1="88" x2="240" y2="88" class="solid"></line>
		<line x1="164" y1="88" x2="152" y2="112" class="solid"></line>
		<line x1="248" y1="80" x2="240" y2="88" class="solid"></line>
		<line x1="136" y1="112" x2="152" y2="112" class="solid"></line>
		<line x1="48" y1="144" x2="64" y2="144" class="solid"></line>
		<line x1="48" y1="144" x2="16" y2="208" class="solid"></line>
		<line x1="64" y1="144" x2="24" y2="224" class="solid"></line>
		<line x1="32" y1="176" x2="40" y2="192" class="solid"></line>
		<line x1="8" y1="208" x2="16" y2="208" class="solid"></line>
		<line x1="24" y1="224" x2="88" y2="352" class="solid"></line>
		<line x1="88" y1="352" x2="96" y2="368" class="solid"></line>
		<line x1="96" y1="368" x2="192" y2="368" class="solid"></line>
		<line x1="192" y1="368" x2="200" y2="376" class="solid"></line>
		<line x1="200" y1="376" x2="304" y2="376" class="solid"></line>
		<line x1="280" y1="160" x2="400" y2="160" class="solid"></line>
		<line x1="400" y1="160" x2="416" y2="192" class="solid"></line>
		<line x1="416" y1="192" x2="392" y2="240" class="solid"></line>
		<line x1="384" y1="240" x2="392" y2="240" class="solid"></line>
		<line x1="384" y1="240" x2="364" y2="280" class="solid"></line>
		<line x1="364" y1="280" x2="364" y2="296" class="solid"></line>
		<line x1="364" y1="296" x2="328" y2="368" class="solid"></line>
		<line x1="312" y1="368" x2="328" y2="368" class="solid"></line>
		<line x1="312" y1="368" x2="304" y2="376" class="solid"></line>
		<line x1="248" y1="176" x2="272" y2="176" class="solid"></line>
		<line x1="280" y1="160" x2="272" y2="176" class="solid"></line>
		<line x1="248" y1="176" x2="240" y2="192" class="solid"></line>
		<line x1="240" y1="192" x2="248" y2="208" class="solid"></line>
		<line x1="248" y1="208" x2="272" y2="208" class="solid"></line>
		<line x1="272" y1="208" x2="280" y2="224" class="solid"></line>
		<line x1="280" y1="224" x2="296" y2="224" class="solid"></line>
		<line x1="296" y1="224" x2="304" y2="240" class="solid"></line>
		<line x1="304" y1="240" x2="320" y2="240" class="solid"></line>
		<line x1="304" y1="240" x2="284" y2="280" class="solid"></line>
		<line x1="284" y1="280" x2="292" y2="280" class="solid"></line>
		<line x1="292" y1="280" x2="276" y2="312" class="solid"></line>
		<line x1="232" y1="312" x2="276" y2="312" class="solid"></line>
		<line x1="304" y1="176" x2="336" y2="176" class="solid"></line>
		<line x1="344" y1="160" x2="336" y2="176" class="solid"></line>
		<line x1="304" y1="176" x2="296" y2="192" class="solid"></line>
		<line x1="296" y1="192" x2="304" y2="208" class="solid"></line>
		<line x1="304" y1="208" x2="320" y2="208" class="solid"></line>
		<line x1="320" y1="208" x2="328" y2="224" class="solid"></line>
		<line x1="328" y1="224" x2="320" y2="240" class="solid"></line>
	</g>
	<g>
		<path d="M 88,208 A 16,16 0,0,0 88,224" class="nofill"></path>
		<line x1="88" y1="208" x2="128" y2="288" class="solid"></line>
		<line x1="88" y1="224" x2="128" y2="304" class="solid"></line>
		<path d="M 128,288 A 16,16 0,0,1 128,304" class="nofill"></path>
	</g>
	<g>
		<line x1="576" y1="16" x2="664" y2="16" class="solid"></line>
		<line x1="576" y1="16" x2="448" y2="272" class="solid"></line>
		<line x1="664" y1="16" x2="488" y2="368" class="solid"></line>
		<line x1="664" y1="16" x2="700" y2="88" class="solid"></line>
		<line x1="700" y1="88" x2="700" y2="120" class="solid"></line>
		<line x1="608" y1="128" x2="624" y2="128" class="solid"></line>
		<line x1="700" y1="120" x2="736" y2="192" class="solid"></line>
		<line x1="624" y1="128" x2="660" y2="200" class="solid"></line>
		<line x1="736" y1="192" x2="752" y2="192" class="solid"></line>
		<line x1="660" y1="200" x2="660" y2="216" class="solid"></line>
		<line x1="752" y1="192" x2="792" y2="272" class="solid"></line>
		<line x1="660" y1="216" x2="696" y2="288" class="solid"></line>
		<line x1="544" y1="256" x2="552" y2="272" class="solid"></line>
		<line x1="552" y1="272" x2="688" y2="272" class="solid"></line>
		<line x1="712" y1="272" x2="792" y2="272" class="solid"></line>
		<line x1="448" y1="272" x2="416" y2="336" class="solid"></line>
		<line x1="696" y1="288" x2="704" y2="288" class="solid"></line>
		<line x1="712" y1="272" x2="704" y2="288" class="solid"></line>
		<line x1="792" y1="272" x2="744" y2="368" class="solid"></line>
		<line x1="584" y1="32" x2="592" y2="32" class="solid"></line>
		<line x1="584" y1="32" x2="456" y2="288" class="solid"></line>
		<line x1="592" y1="32" x2="424" y2="368" class="solid"></line>
		<line x1="456" y1="288" x2="424" y2="352" class="solid"></line>
		<line x1="416" y1="336" x2="424" y2="352" class="solid"></line>
		<line x1="544" y1="288" x2="552" y2="288" class="solid"></line>
		<line x1="544" y1="288" x2="504" y2="368" class="solid"></line>
		<line x1="552" y1="288" x2="512" y2="368" class="solid"></line>
		<line x1="424" y1="368" x2="504" y2="368" class="solid"></line>
		<line x1="512" y1="368" x2="744" y2="368" class="solid"></line>
	</g>
	<g>
		<path d="M 640,112 A 16,16 0,0,0 640,128" class="nofill"></path>
		<line x1="640" y1="112" x2="680" y2="192" class="solid"></line>
		<line x1="640" y1="128" x2="680" y2="208" class="solid"></line>
		<path d="M 680,192 A 16,16 0,0,1 680,208" class="nofill"></path>
	</g>
</svg>